HIERARCHY
ROOT hip
{
  OFFSET 0 0 0
  CHANNELS 6 Xposition Yposition Zposition Zrotation Yrotation Xrotation
  JOINT abdomen
  {
    OFFSET 0 20.6881 -0.73152
    CHANNELS 3 Zrotation Xrotation Yrotation
    JOINT chest
    {
      OFFSET 0 11.7043 -0.48768
      CHANNELS 3 Zrotation Xrotation Yrotation
      JOINT neck
      {
        OFFSET 0 22.1894 -2.19456
        CHANNELS 3 Zrotation Xrotation Yrotation
        JOINT head
        {
          OFFSET -0.24384 7.07133 1.2192
          CHANNELS 3 Zrotation Xrotation Yrotation
          JOINT leftEye
          {
            OFFSET 4.14528 8.04674 8.04672
            CHANNELS 3 Zrotation Xrotation Yrotation
            End Site
            {
              OFFSET 1 0 0
            }
          }
          JOINT rightEye
          {
            OFFSET -3.6576 8.04674 8.04672
            CHANNELS 3 Zrotation Xrotation Yrotation
            End Site
            {
              OFFSET 1 0 0
            }
          }
        }
      }
      JOINT rCollar
      {
        OFFSET -2.68224 19.2634 -4.8768
        CHANNELS 3 Zrotation Xrotation Yrotation
        JOINT rShldr
        {
          OFFSET -8.77824 -1.95073 1.46304
          CHANNELS 3 Zrotation Xrotation Yrotation
          JOINT rForeArm
          {
            OFFSET -28.1742 -1.7115 0.48768
            CHANNELS 3 Zrotation Xrotation Yrotation
            JOINT rHand
            {
              OFFSET -22.5879 0.773209 7.07136
              CHANNELS 3 Zrotation Xrotation Yrotation
              JOINT rThumb1
              {
                OFFSET -1.2192 -0.487915 3.41376
                CHANNELS 3 Zrotation Xrotation Yrotation
                JOINT rThumb2
                {
                  OFFSET -3.37035 -0.52449 3.41376
                  CHANNELS 3 Zrotation Xrotation Yrotation
                  End Site
                  {
                    OFFSET -1.78271 -1.18214 1.43049
                  }
                }
              }
              JOINT rIndex1
              {
                OFFSET -7.75947 0.938293 5.60832
                CHANNELS 3 Zrotation Xrotation Yrotation
                JOINT rIndex2
                {
                  OFFSET -2.54057 -0.884171 1.56538
                  CHANNELS 3 Zrotation Xrotation Yrotation
                  End Site
                  {
                    OFFSET -1.62519 -0.234802 1.16502
                  }
                }
              }
              JOINT rMid1
              {
                OFFSET -8.24714 1.18213 3.41376
                CHANNELS 3 Zrotation Xrotation Yrotation
                JOINT rMid2
                {
                  OFFSET -3.10165 -0.590103 1.0647
                  CHANNELS 3 Zrotation Xrotation Yrotation
                  End Site
                  {
                    OFFSET -2.48547 -0.328903 0.83742
                  }
                }
              }
              JOINT rRing1
              {
                OFFSET -8.82822 0.546677 1.51678
                CHANNELS 3 Zrotation Xrotation Yrotation
                JOINT rRing2
                {
                  OFFSET -2.60934 -0.819778 -0.0198488
                  CHANNELS 3 Zrotation Xrotation Yrotation
                  End Site
                  {
                    OFFSET -2.33842 -0.294052 0.168128
                  }
                }
              }
              JOINT rPinky1
              {
                OFFSET -8.27202 -0.0477905 -0.4584
                CHANNELS 3 Zrotation Xrotation Yrotation
                JOINT rPinky2
                {
                  OFFSET -1.82734 -0.647385 -0.700984
                  CHANNELS 3 Zrotation Xrotation Yrotation
                  End Site
                  {
                    OFFSET -1.69225 -0.51767 -0.607171
                  }
                }
              }
            }
          }
        }
      }
      JOINT lCollar
      {
        OFFSET 2.68224 19.2634 -4.8768
        CHANNELS 3 Zrotation Xrotation Yrotation
        JOINT lShldr
        {
          OFFSET 8.77824 -1.95073 1.46304
          CHANNELS 3 Zrotation Xrotation Yrotation
          JOINT lForeArm
          {
            OFFSET 28.1742 -1.7115 0.48768
            CHANNELS 3 Zrotation Xrotation Yrotation
            JOINT lHand
            {
              OFFSET 22.5879 0.773209 7.07136
              CHANNELS 3 Zrotation Xrotation Yrotation
              JOINT lThumb1
              {
                OFFSET 1.2192 -0.487915 3.41376
                CHANNELS 3 Zrotation Xrotation Yrotation
                JOINT lThumb2
                {
                  OFFSET 3.37035 -0.52449 3.41376
                  CHANNELS 3 Zrotation Xrotation Yrotation
                  End Site
                  {
                    OFFSET 1.78271 -1.18214 1.43049
                  }
                }
              }
              JOINT lIndex1
              {
                OFFSET 7.75947 0.938293 5.60832
                CHANNELS 3 Zrotation Xrotation Yrotation
                JOINT lIndex2
                {
                  OFFSET 2.54057 -0.884171 1.56538
                  CHANNELS 3 Zrotation Xrotation Yrotation
                  End Site
                  {
                    OFFSET 1.62519 -0.234802 1.16502
                  }
                }
              }
              JOINT lMid1
              {
                OFFSET 8.24714 1.18213 3.41376
                CHANNELS 3 Zrotation Xrotation Yrotation
                JOINT lMid2
                {
                  OFFSET 3.10165 -0.590103 1.0647
                  CHANNELS 3 Zrotation Xrotation Yrotation
                  End Site
                  {
                    OFFSET 2.48547 -0.328903 0.83742
                  }
                }
              }
              JOINT lRing1
              {
                OFFSET 8.82822 0.546677 1.51678
                CHANNELS 3 Zrotation Xrotation Yrotation
                JOINT lRing2
                {
                  OFFSET 2.60934 -0.819778 -0.0198488
                  CHANNELS 3 Zrotation Xrotation Yrotation
                  End Site
                  {
                    OFFSET 2.33842 -0.294052 0.168128
                  }
                }
              }
              JOINT lPinky1
              {
                OFFSET 8.27202 -0.0477905 -0.4584
                CHANNELS 3 Zrotation Xrotation Yrotation
                JOINT lPinky2
                {
                  OFFSET 1.82734 -0.647385 -0.700984
                  CHANNELS 3 Zrotation Xrotation Yrotation
                  End Site
                  {
                    OFFSET 1.69225 -0.51767 -0.607171
                  }
                }
              }
            }
          }
        }
      }
    }
  }
  JOINT rButtock
  {
    OFFSET -8.77824 4.35084 1.2192
    CHANNELS 3 Zrotation Xrotation Yrotation
    JOINT rThigh
    {
      OFFSET 0 -1.70687 -2.19456
      CHANNELS 3 Zrotation Xrotation Yrotation
      JOINT rShin
      {
        OFFSET 0 -36.8199 0.73152
        CHANNELS 3 Zrotation Xrotation Yrotation
        JOINT rFoot
        {
          OFFSET 0.73152 -45.1104 -5.12064
          CHANNELS 3 Zrotation Xrotation Yrotation
          End Site
          {
            OFFSET -1.1221 -3.69964 12.103
          }
        }
      }
    }
  }
  JOINT lButtock
  {
    OFFSET 8.77824 4.35084 1.2192
    CHANNELS 3 Zrotation Xrotation Yrotation
    JOINT lThigh
    {
      OFFSET 0 -1.70687 -2.19456
      CHANNELS 3 Zrotation Xrotation Yrotation
      JOINT lShin
      {
        OFFSET 0 -36.8199 0.73152
        CHANNELS 3 Zrotation Xrotation Yrotation
        JOINT lFoot
        {
          OFFSET -0.73152 -45.1104 -5.12064
          CHANNELS 3 Zrotation Xrotation Yrotation
          End Site
          {
            OFFSET 1.1221 -3.69964 12.103
          }
        }
      }
    }
  }
}
MOTION
Frames:	4
Frame Time:	0.03333
0.01407026406377554 -0.171500101685524 0.037707678973674774 -16.894480884075165 -4.426736868917942 -1.3520821183919907 -0.23409750312566757 10.750867053866386 4.162530899047852 0.5881859734654427 -8.20879876613617 1.7608296498656273 -3.466075211763382 11.496032327413559 -2.71664522588253 8.378297612071037 -19.78440821170807 -5.238897018134594 0.26335688307881355 1.8511144816875458 -0.4525506030768156 -0.30647188425064087 0.7874010130763054 0.6013954756781459 -1.3186859339475632 -0.8179530501365662 0.6435989029705524 35.49255073070526 22.189067602157593 7.974235564470291 -21.55385747551918 -22.880715429782867 50.890817642211914 -1.8816832825541496 -6.780230775475502 -2.89620503783226 0.6750263459980488 -0.4896838590502739 2.221035696566105 1.0838288627564907 0.4546697996556759 -0.5632099136710167 0.10169511660933495 0.5659712478518486 1.464136429131031 6.604345589876175 3.2334016263484955 0.37944238632917404 -0.24364591576159 -0.18421880900859833 1.2159308418631554 1.9772917963564396 2.404823675751686 -0.3916422463953495 -1.5831993520259857 1.9752823188900948 -0.5658230558037758 8.216143995523453 0.6549959443509579 -0.8323997631669044 -0.9405484423041344 0.7157815061509609 0.0677570840343833 1.8624977767467499 -1.4811625890433788 -2.8759734705090523 -0.7239493355154991 1.001956108957529 0.2516737673431635 -44.6947968006134 22.416403591632843 -21.384809911251068 18.454119712114334 -17.114255726337433 -46.695778369903564 2.9180871695280075 -9.761634171009064 2.0098290033638477 -0.9589889645576477 -0.3247947245836258 -0.2130716247484088 1.030025091022253 -1.5197805315256119 -0.7300339266657829 -1.2784692272543907 0.9248892031610012 0.23748848587274551 -7.646312043070793 4.4288769364356995 -0.38398575503379107 -0.5777065828442574 0.5173888988792896 -0.9918215498328209 -3.0001510307192802 0.26240352541208267 -1.35651346296072 -1.624397411942482 1.125472504645586 -0.0006353901699185371 -10.058990567922592 1.4488786831498146 -1.0731573589146137 -1.0250606574118137 -0.1700974814593792 0.36272551864385605 -3.693404160439968 0.2459874004125595 0.6848526606336236 0.36304323468357325 -0.13918443582952023 -0.8092167600989342 -26.2044095993042 -25.360339879989624 -20.11299893260002 -14.920596331357956 48.97233009338379 19.020182490348816 -5.041665807366371 -9.797759503126144 -7.645842656493187 -1.3067645207047462 -1.5298351272940636 1.1032054759562016 30.43950229883194 -27.98183172941208 24.30102288722992 19.88358423113823 48.21642994880676 -14.071946740150452 6.003512665629387 -9.333663582801819 9.766245558857918
0.010835370980203152 -0.5565621852874756 0.12071067094802856 -21.386397778987885 -2.9749074205756187 2.558431103825569 -2.1355342492461205 13.58934223651886 4.745582118630409 2.250586934387684 -9.472800493240356 1.0500879306346178 -5.438502319157124 15.21810695528984 -3.004031181335449 8.556329235434532 -24.973610937595367 -5.530156418681145 -0.3459342196583748 0.16596771776676178 -0.10481955483555794 -0.14447517693042755 -0.4578004404902458 0.4719061776995659 -0.3146291524171829 0.17871391028165817 0.24504133500158787 46.75378918647766 28.605018854141235 12.251650840044022 -23.766844868659973 -29.072157740592957 64.01090741157532 -4.344681389629841 -11.892178505659103 -4.719206281006336 0.3811926953494549 0.11141359806060791 -0.04944317042827606 0.22922107949852943 0.09943129029124975 0.04735473543405533 -0.32433439046144485 -0.2095847949385643 0.0876472145318985 7.291616052389145 5.267608389258385 -0.16217716969549656 0.1332729309797287 -0.20113508217036724 0.1449817791581154 2.3599286936223507 1.8493281304836273 0.44376762583851814 0.46845585107803345 0.8256151154637337 0.07841957733035088 9.93471309542656 0.7051268499344587 -0.21541960537433624 0.5193618312478065 0.23855499923229218 0.5691198678687215 2.440179381519556 -1.0420898348093033 -1.5703891217708588 -0.213746577501297 0.02255033701658249 -0.18566179554909468 -57.90948271751404 29.090501368045807 -23.219800293445587 22.312278896570206 -24.267704486846924 -57.63235688209534 4.793267101049423 -9.336811155080795 3.0714069306850433 0.009066872298717499 -0.4669230943545699 -0.01806803047657013 0.2604269050061703 0.00648893415927887 0.47822345048189163 -0.16804441809654236 0.03456009551882744 -0.16180459409952164 -7.7739375829696655 5.337200649082661 -0.17205947544425726 0.2022908627986908 0.22614190354943275 0.3996136039495468 -3.274014964699745 1.0662934184074402 -0.7966658659279346 -0.13309389352798462 0.47256801277399063 -0.2899130154401064 -10.370002090930939 0.5183513090014458 -0.3642585687339306 0.19156001508235931 0.07135581225156784 -0.06863772869110107 -2.667039781808853 -0.4640922322869301 0.6137363612651825 0.15706165228039026 -0.5248022312298417 0.13581868261098862 -32.89824306964874 -32.0766019821167 -28.207180202007294 -20.734537839889526 60.91477990150452 20.47787457704544 -4.930747076869011 -10.290510803461075 -10.12054592370987 -0.1542256772518158 0.1937859132885933 0.2532375790178776 40.49987018108368 -32.18462526798248 34.21718180179596 23.62859308719635 60.31336426734924 -22.259085327386856 5.662095621228218 -10.575199127197266 13.289157450199127
-0.7083435440436006 -1.6128804683685303 1.9955691695213318 2.092360407114029 0.29136836528778076 14.638933539390564 -6.0262531042099 19.691306054592133 4.808773621916771 3.2064149156212807 -11.08389750123024 0.20977506414055824 -8.288074135780334 14.881132990121841 -5.1394229382276535 9.619374498724937 -25.025554597377777 -5.601450204849243 -1.3352348282933235 3.242879882454872 -0.6219622772186995 2.6018473505973816 -0.8987800776958466 -1.3715018145740032 -0.1839720457792282 0.05784619599580765 4.012684263288975 44.06034976243973 25.643522143363953 28.284610211849213 -24.9206480383873 -24.719367027282715 63.73443067073822 -2.5232871249318123 0.22969800978899002 -2.225136961787939 0.3278992557898164 0.39917707443237305 -0.2805255353450775 -3.4711244702339172 -0.8387871086597443 -0.1286727748811245 -0.30677229166030884 -0.03382517024874687 -1.4682720601558685 6.618935465812683 7.4794310331344604 -0.6438462529331446 -0.010593552142381668 1.5144623816013336 -2.43936013430357 3.2533767074346542 0.8002524822950363 1.0874645970761776 -0.8232108503580093 2.817559987306595 1.915892343968153 10.77420562505722 2.4637340381741524 -0.531655065715313 -0.29834579676389694 -0.25018371641635895 0.8339452184736729 1.888077836483717 -2.15703047811985 -1.4704999700188637 0.9593830816447735 0.47294318675994873 -2.259109653532505 -53.29764425754547 34.6822714805603 -40.51996797323227 27.683642506599426 -29.347277283668518 -68.20578038692474 2.128906175494194 -16.695223599672318 -3.284318670630455 0.3993460536003113 2.601772751659155 -1.7239020019769669 0.6352667883038521 -0.65345149487257 -1.119844727218151 3.9892635494470596 -0.7724746875464916 0.24271007627248764 -7.9864416271448135 5.030488707125187 -1.5809737890958786 -0.9702636301517487 -3.375997915863991 0.03654643893241882 -1.2941799312829971 1.9696570560336113 2.0006107538938522 -4.356111288070679 -0.016945190727710724 -1.2147224228829145 -9.218499585986137 2.6143062114715576 -2.316151186823845 1.3703593611717224 -3.4837767854332924 -0.6050704792141914 -3.0652187392115593 -3.173763044178486 -0.2812103368341923 -0.19191754516214132 -0.3739747451618314 1.4101522788405418 -41.16235971450806 -49.08113658428192 -37.746899127960205 -29.00614857673645 67.21575021743774 10.138559639453888 -5.818509981036186 -7.101323381066322 -14.304167032241821 2.7112191170454025 0.3259192407131195 -1.895040851086378 24.042736887931824 -22.418912798166275 17.41834983229637 21.639960408210754 56.19438707828522 -23.051620423793793 4.9643464386463165 -6.461322829127312 18.275180160999298
-1.6932263756170869 -3.6716630458831787 3.73558908700943 8.392869383096695 10.563398748636246 32.829025983810425 4.029873870313168 27.798001170158386 -1.9459337554872036 3.342345915734768 -14.12553995847702 1.2397238798439503 -10.853097438812256 13.23067992925644 -7.273079976439476 6.876573711633682 -26.856701374053955 -7.828928232192993 -2.192619703710079 3.5022518411278725 1.2303635571151972 3.339662365615368 -1.7059288546442986 -1.6242758743464947 -1.0650072991847992 -0.10615278035402298 3.6340847611427307 38.55895668268204 14.608246386051178 23.004990220069885 -22.850516438484192 -14.35677856206894 52.831395864486694 4.258835278451443 9.27697241306305 1.5891915746033192 -1.3900197856128216 2.413967829197645 7.8233324736356735 -3.9694561064243317 1.0614424757659435 1.4157684892416 3.0768612027168274 -1.545122042298317 -0.17729301005601883 6.418904364109039 2.1345844119787216 -1.611398421227932 -0.315153356641531 6.670903265476227 -0.9268292784690857 -0.27651274111121893 2.474268078804016 1.332398559898138 -0.8129064738750458 1.9550403580069542 2.2478281147778034 8.356377929449081 3.89713604003191 -0.2280920371413231 3.2131459191441536 -9.133011549711227 3.4134070202708244 2.068705167621374 -0.39615388959646225 -2.510633133351803 -0.9130103699862957 1.388691421598196 -0.663818190805614 -49.82805669307709 37.78718858957291 -51.54560923576355 25.154018998146057 -30.39953202009201 -76.53379261493683 3.636315017938614 -19.926833510398865 -4.197779819369316 -0.3185766935348511 2.735795360058546 1.3113202527165413 -0.22322751581668854 1.3601723313331604 -9.911706447601318 3.0863770097494125 -0.7737742178142071 1.9578964076936245 -7.775277346372604 3.9697638899087906 -1.597069725394249 -2.9368971660733223 -5.0883617252111435 0.8704472333192825 -0.9959397464990616 2.7160360291600227 -0.49416616559028625 -3.549477830529213 1.9317390024662018 -3.2286259531974792 -9.315672665834427 3.7681519612669945 -2.8063595853745937 0.20510483533143997 -4.08698346465826 1.547989659011364 -1.9783128798007965 -2.376825772225857 0.6857112608850002 -0.18934262450784445 1.853874810039997 0.8143679425120354 -45.85593581199646 -64.85785245895386 -38.764977157115936 -41.143155097961426 70.442715883255 6.831355690956116 -5.793680101633072 -2.034981921315193 -21.27929985523224 2.2148414701223373 -5.481636933982372 -4.494680240750313 3.640018478035927 -18.318296670913696 -5.242097228765488 14.204528331756592 42.919316589832306 -26.544771194458008 3.6667145043611526 -2.6218780875205994 21.691293865442276
